<svg width="30" height="20" viewBox="0 0 30 20" fill="none" xmlns="http://www.w3.org/2000/svg">
<path d="M22.1812 3.11148C19.789 2.07639 17.3977 1.03923 15.0076 0L0 6.50688L2.56789 7.64721L2.35537 7.67863V19.8604H3.62034V8.65954L4.53112 8.51526L4.88531 8.67235V14.8255C4.88531 15.889 11.4707 18.9365 12.7901 19.5369C13.476 19.8466 14.2309 20.0051 14.995 19.9999C15.7591 19.9946 16.5114 19.8258 17.1922 19.5067C25.1248 15.7715 25.1248 15.0838 25.1248 14.8255V8.67235L30 6.51153C30 6.51153 25.1931 4.41588 22.1812 3.11148ZM23.8598 14.6288C21.5373 16.0509 19.1179 17.3342 16.6166 18.4711C16.1116 18.7081 15.5535 18.8337 14.9865 18.8377C14.4196 18.8418 13.8594 18.7242 13.3505 18.4943C10.8401 17.3957 8.43199 16.1095 6.15028 14.6486V9.23204L15.0051 13.1569L23.8598 9.23204V14.6288ZM15.0051 11.8676L6.67651 8.17549L14.8596 6.87807L14.6445 5.72959L4.71454 7.30511L2.93979 6.51851L15.0038 1.28811C16.0474 1.74541 25.7851 5.95882 27.0741 6.51735L15.0051 11.8676Z" fill="white"/>
</svg>
