<svg width="75" height="75" viewBox="0 0 75 75" fill="none" xmlns="http://www.w3.org/2000/svg">
<path d="M21.969 0.262552C17.979 0.450677 15.2543 1.08755 12.8721 2.02318C10.4071 2.98412 8.31744 4.27318 6.23838 6.35974C4.15963 8.4463 2.87901 10.5372 1.92525 13.0066C1.00213 15.3935 0.376505 18.1207 0.200255 22.1129C0.024005 26.1051 -0.0150575 27.3885 0.00462997 37.5722C0.024005 47.7554 0.069005 49.0319 0.262442 53.0326C0.453067 57.0216 1.08744 59.7457 2.02338 62.1285C2.98588 64.5938 4.27338 66.6826 6.36088 68.7622C8.44807 70.8419 10.5374 72.1194 13.0124 73.0747C15.3974 73.9966 18.1253 74.6251 22.1168 74.7997C26.1084 74.9747 27.3931 75.0154 37.5737 74.9957C47.7543 74.9763 49.0362 74.931 53.0356 74.7413C57.0356 74.5516 59.7449 73.9126 62.1287 72.981C64.594 72.0166 66.6843 70.731 68.7624 68.6432C70.8406 66.5551 72.1203 64.4626 73.0734 61.9919C73.9974 59.6069 74.6253 56.8794 74.7984 52.8907C74.9734 48.8879 75.0146 47.6101 74.9953 37.4282C74.9756 27.246 74.9296 25.9694 74.7399 21.9704C74.5503 17.9713 73.9149 15.2557 72.9796 12.8713C72.0159 10.406 70.7296 8.3188 68.6434 6.23755C66.5568 4.1563 64.4624 2.87755 61.9931 1.92662C59.6062 1.00318 56.8803 0.374115 52.8887 0.201615C48.8971 0.0291149 47.6124 -0.0155725 37.4281 0.00442747C27.2437 0.0238025 25.9687 0.0675525 21.969 0.262552ZM22.4071 68.0535C18.7509 67.8944 16.7656 67.2869 15.4424 66.7785C13.6906 66.1035 12.4424 65.2876 11.124 63.9816C9.80526 62.676 8.99557 61.4235 8.3115 59.6754C7.79775 58.3522 7.17901 56.3691 7.00807 52.7129C6.82213 48.7613 6.78307 47.5747 6.76119 37.5629C6.73932 27.5513 6.77775 26.366 6.95088 22.4129C7.10713 18.7597 7.71838 16.7722 8.22588 15.4497C8.90088 13.6957 9.714 12.4497 11.0228 11.1322C12.3315 9.81443 13.5803 9.00286 15.3299 8.3188C16.6518 7.80286 18.6346 7.18943 22.2893 7.01536C26.244 6.82786 27.429 6.79036 37.4393 6.76849C47.4496 6.74661 48.6377 6.78411 52.594 6.95849C56.2471 7.11724 58.2356 7.72255 59.5565 8.23349C61.309 8.90849 62.5565 9.71911 63.874 11.0304C65.1918 12.341 66.004 13.5854 66.6881 15.3388C67.2046 16.6566 67.8184 18.6388 67.9909 22.296C68.179 26.2507 68.2218 27.4366 68.2396 37.446C68.2578 47.4554 68.2224 48.6441 68.049 52.596C67.8896 56.2522 67.2834 58.2382 66.774 59.5629C66.099 61.3141 65.2856 62.5629 63.9759 63.8797C62.6665 65.1969 61.4193 66.0082 59.6687 66.6922C58.3487 67.2076 56.3634 67.8226 52.7118 67.9966C48.7568 68.1826 47.5718 68.2216 37.5578 68.2435C27.5437 68.2654 26.3618 68.2247 22.4071 68.0535ZM52.9781 17.4576C52.9795 18.3476 53.245 19.2173 53.7408 19.9565C54.2365 20.6958 54.9404 21.2714 55.7634 21.6105C56.5863 21.9497 57.4913 22.0372 58.364 21.862C59.2367 21.6867 60.0378 21.2566 60.666 20.6261C61.2942 19.9955 61.7213 19.1928 61.8933 18.3194C62.0652 17.4461 61.9744 16.5414 61.6321 15.7197C61.2899 14.8981 60.7116 14.1964 59.9705 13.7034C59.2294 13.2104 58.3588 12.9482 57.4687 12.9501C56.2755 12.9525 55.1322 13.4288 54.2901 14.274C53.448 15.1193 52.9761 16.2644 52.9781 17.4576ZM18.2453 37.5376C18.2662 48.1726 26.9034 56.7741 37.5359 56.7541C48.169 56.7338 56.7765 48.0976 56.7565 37.4626C56.7362 26.8276 48.0971 18.2235 37.4628 18.2444C26.8284 18.2654 18.2253 26.9038 18.2453 37.5376ZM24.9999 37.5241C24.9951 35.0519 25.7234 32.6337 27.0928 30.5754C28.4623 28.5171 30.4113 26.9111 32.6935 25.9605C34.9757 25.0098 37.4885 24.7573 39.9142 25.2348C42.3399 25.7123 44.5696 26.8984 46.3212 28.6431C48.0728 30.3877 49.2677 32.6126 49.7549 35.0364C50.242 37.4602 49.9995 39.974 49.0579 42.26C48.1164 44.5459 46.5182 46.5013 44.4653 47.8789C42.4125 49.2565 39.9972 49.9945 37.5249 49.9994C35.8833 50.0029 34.2572 49.6829 32.7392 49.0578C31.2213 48.4327 29.8414 47.5147 28.6783 46.3562C27.5152 45.1977 26.5917 43.8215 25.9606 42.3061C25.3294 40.7906 25.003 39.1657 24.9999 37.5241Z" fill="black"/>
</svg>
