<svg width="63" height="71" viewBox="0 0 63 71" fill="none" xmlns="http://www.w3.org/2000/svg">
<path d="M38.5728 65.7813C45.0319 63.2665 48.1803 68.0059 49.7707 70.0048C46.7198 61.8156 52.7895 50.9904 62.5918 53.0785C48.9268 50.1676 31.9188 28.8011 43.5712 8.2315C47.9856 8.2315 46.2977 1.49316 51.9129 1.49316" stroke="#F0F4F7" stroke-width="3"/>
<path d="M24.3953 65.7813C17.9188 63.2665 14.7619 68.0059 13.1671 70.0048C16.2264 61.8156 10.1403 50.9904 0.311523 53.0785C14.0133 50.1676 31.0673 28.8011 19.3833 8.2315C14.9571 8.2315 16.6495 1.49316 11.0191 1.49316" stroke="#F0F4F7" stroke-width="3"/>
<path d="M31.7204 68.2345L31.7197 8.12891" stroke="#F0F4F7" stroke-width="3"/>
<path d="M27.875 6.63574H35.2539" stroke="#F0F4F7" stroke-width="3" stroke-linecap="round"/>
<path d="M27.8774 66.7075H35.2566" stroke="#F0F4F7" stroke-width="3" stroke-linecap="round"/>
</svg>
