<svg width="377" height="428" viewBox="0 0 377 428" fill="none" xmlns="http://www.w3.org/2000/svg">
<path d="M230.875 396.54C269.533 381.38 288.376 409.95 297.895 422C279.635 372.634 315.962 307.378 374.629 319.965C292.844 302.418 191.051 173.617 260.791 49.6198C287.211 49.6198 277.109 9 310.716 9" stroke="white" stroke-width="18"/>
<path d="M146.023 396.54C107.261 381.38 88.3666 409.95 78.8221 422C97.132 372.634 60.7069 307.378 1.88138 319.965C83.8865 302.418 185.955 173.617 116.026 49.6198C89.5353 49.6198 99.6642 9 65.9662 9" stroke="white" stroke-width="18"/>
<line x1="189.863" y1="411.327" x2="189.859" y2="49.0001" stroke="white" stroke-width="18"/>
<line x1="166.848" y1="40" x2="211.011" y2="40" stroke="white" stroke-width="18" stroke-linecap="round"/>
<line x1="166.863" y1="402.122" x2="211.027" y2="402.122" stroke="white" stroke-width="18" stroke-linecap="round"/>
</svg>
