<svg width="751" height="271" viewBox="0 0 751 271" fill="none" xmlns="http://www.w3.org/2000/svg">
<path d="M293.224 176.828H277.894V105.323H293.224V176.828ZM336.549 124.223C339.979 124.223 342.779 124.818 344.949 126.008C347.119 127.128 348.764 128.703 349.884 130.733C351.074 132.763 351.844 135.073 352.194 137.663C352.614 140.183 352.824 142.808 352.824 145.538V176.828H337.494V146.378C337.494 143.438 336.969 141.513 335.919 140.603C334.869 139.623 333.469 139.133 331.719 139.133C330.249 139.133 328.709 139.448 327.099 140.078C325.559 140.638 324.054 141.443 322.584 142.493C321.114 143.543 319.819 144.733 318.699 146.063L315.969 138.293H320.274V176.828H304.944V125.483H316.284L319.434 135.668L314.184 135.248C316.004 133.218 318.069 131.363 320.379 129.683C322.689 128.003 325.209 126.673 327.939 125.693C330.669 124.713 333.539 124.223 336.549 124.223ZM394.586 124.223C398.016 124.223 400.816 124.818 402.986 126.008C405.156 127.128 406.801 128.703 407.921 130.733C409.111 132.763 409.881 135.073 410.231 137.663C410.651 140.183 410.861 142.808 410.861 145.538V176.828H395.531V146.378C395.531 143.438 395.006 141.513 393.956 140.603C392.906 139.623 391.506 139.133 389.756 139.133C388.286 139.133 386.746 139.448 385.136 140.078C383.596 140.638 382.091 141.443 380.621 142.493C379.151 143.543 377.856 144.733 376.736 146.063L374.006 138.293H378.311V176.828H362.981V125.483H374.321L377.471 135.668L372.221 135.248C374.041 133.218 376.106 131.363 378.416 129.683C380.726 128.003 383.246 126.673 385.976 125.693C388.706 124.713 391.576 124.223 394.586 124.223ZM444.446 178.088C439.126 178.088 434.436 176.968 430.376 174.728C426.316 172.418 423.166 169.233 420.926 165.173C418.686 161.113 417.566 156.458 417.566 151.208C417.566 145.888 418.686 141.198 420.926 137.138C423.166 133.078 426.316 129.928 430.376 127.688C434.436 125.378 439.126 124.223 444.446 124.223C449.836 124.223 454.561 125.378 458.621 127.688C462.681 129.928 465.831 133.078 468.071 137.138C470.381 141.198 471.536 145.888 471.536 151.208C471.536 156.458 470.381 161.113 468.071 165.173C465.831 169.233 462.681 172.418 458.621 174.728C454.561 176.968 449.836 178.088 444.446 178.088ZM444.446 163.178C447.876 163.178 450.641 162.093 452.741 159.923C454.911 157.683 455.996 154.778 455.996 151.208C455.996 147.568 454.911 144.628 452.741 142.388C450.641 140.148 447.876 139.028 444.446 139.028C441.156 139.028 438.426 140.148 436.256 142.388C434.156 144.558 433.106 147.463 433.106 151.103C433.106 154.743 434.156 157.683 436.256 159.923C438.426 162.093 441.156 163.178 444.446 163.178ZM525.613 125.483L507.133 176.828H492.328L472.903 125.483H488.653L501.778 164.438H497.578L510.178 125.483H525.613ZM545.355 178.193C541.645 178.193 538.355 177.493 535.485 176.093C532.685 174.623 530.515 172.593 528.975 170.003C527.435 167.413 526.665 164.403 526.665 160.973C526.665 157.333 527.505 154.253 529.185 151.733C530.865 149.143 533.105 147.148 535.905 145.748C538.775 144.348 541.96 143.648 545.46 143.648C550.57 143.648 554.7 144.803 557.85 147.113C561 149.423 563.1 152.748 564.15 157.088L557.535 155.933V143.963C557.535 142.073 556.87 140.428 555.54 139.028C554.21 137.628 552.075 136.928 549.135 136.928C547.245 136.928 545.075 137.173 542.625 137.663C540.175 138.083 537.655 138.923 535.065 140.183L530.55 129.263C533.63 127.723 536.92 126.498 540.42 125.588C543.99 124.678 547.63 124.223 551.34 124.223C556.1 124.223 560.09 125.063 563.31 126.743C566.53 128.423 568.91 130.803 570.45 133.883C572.06 136.963 572.865 140.533 572.865 144.593V176.828H560.37L557.325 166.853L564.15 164.753C563.03 168.953 560.895 172.243 557.745 174.623C554.595 177.003 550.465 178.193 545.355 178.193ZM550.08 167.273C552.39 167.273 554.21 166.678 555.54 165.488C556.94 164.298 557.64 162.793 557.64 160.973C557.64 159.013 556.94 157.473 555.54 156.353C554.21 155.233 552.39 154.673 550.08 154.673C547.77 154.673 545.95 155.233 544.62 156.353C543.29 157.473 542.625 159.013 542.625 160.973C542.625 162.793 543.29 164.298 544.62 165.488C545.95 166.678 547.77 167.273 550.08 167.273ZM627.34 176.828H583.87V105.323H599.2V167.798L595.315 162.023H627.34V176.828ZM650.663 178.193C646.953 178.193 643.663 177.493 640.793 176.093C637.993 174.623 635.823 172.593 634.283 170.003C632.743 167.413 631.973 164.403 631.973 160.973C631.973 157.333 632.813 154.253 634.493 151.733C636.173 149.143 638.413 147.148 641.213 145.748C644.083 144.348 647.268 143.648 650.768 143.648C655.878 143.648 660.008 144.803 663.158 147.113C666.308 149.423 668.408 152.748 669.458 157.088L662.843 155.933V143.963C662.843 142.073 662.178 140.428 660.848 139.028C659.518 137.628 657.383 136.928 654.443 136.928C652.553 136.928 650.383 137.173 647.933 137.663C645.483 138.083 642.963 138.923 640.373 140.183L635.858 129.263C638.938 127.723 642.228 126.498 645.728 125.588C649.298 124.678 652.938 124.223 656.648 124.223C661.408 124.223 665.398 125.063 668.618 126.743C671.838 128.423 674.218 130.803 675.758 133.883C677.368 136.963 678.173 140.533 678.173 144.593V176.828H665.678L662.633 166.853L669.458 164.753C668.338 168.953 666.203 172.243 663.053 174.623C659.903 177.003 655.773 178.193 650.663 178.193ZM655.388 167.273C657.698 167.273 659.518 166.678 660.848 165.488C662.248 164.298 662.948 162.793 662.948 160.973C662.948 159.013 662.248 157.473 660.848 156.353C659.518 155.233 657.698 154.673 655.388 154.673C653.078 154.673 651.258 155.233 649.928 156.353C648.598 157.473 647.933 159.013 647.933 160.973C647.933 162.793 648.598 164.298 649.928 165.488C651.258 166.678 653.078 167.273 655.388 167.273ZM716.793 178.088C712.313 178.088 708.393 177.003 705.033 174.833C701.673 172.593 699.048 169.478 697.158 165.488C695.338 161.428 694.428 156.633 694.428 151.103C694.428 145.293 695.338 140.393 697.158 136.403C698.978 132.413 701.533 129.403 704.823 127.373C708.183 125.273 712.138 124.223 716.688 124.223C721.308 124.223 725.403 125.378 728.973 127.688C732.543 129.928 735.343 133.078 737.373 137.138C739.403 141.198 740.418 145.853 740.418 151.103C740.418 156.353 739.403 161.043 737.373 165.173C735.413 169.233 732.648 172.418 729.078 174.728C725.578 176.968 721.483 178.088 716.793 178.088ZM688.338 176.828V105.323H703.668V139.763H702.723V163.703H703.668L699.783 176.828H688.338ZM713.853 163.703C717.003 163.703 719.593 162.548 721.623 160.238C723.723 157.858 724.773 154.813 724.773 151.103C724.773 147.463 723.723 144.488 721.623 142.178C719.593 139.798 717.003 138.608 713.853 138.608C710.773 138.608 708.183 139.798 706.083 142.178C703.983 144.488 702.933 147.463 702.933 151.103C702.933 154.813 703.983 157.858 706.083 160.238C708.183 162.548 710.773 163.703 713.853 163.703Z" fill="black"/>
<path d="M145.625 249.909C169.856 240.407 181.667 258.314 187.633 265.867C176.187 234.925 198.957 194.022 235.729 201.912C184.467 190.913 120.664 110.181 164.376 32.4603C180.936 32.4603 174.604 7 195.669 7" stroke="black" stroke-width="14"/>
<path d="M91.8125 249.909C67.5163 240.407 55.6734 258.314 49.6909 265.867C61.1675 234.925 38.3364 194.022 1.46474 201.912C52.8653 190.913 116.841 110.181 73.0104 32.4603C56.4059 32.4603 62.7547 7 41.6329 7" stroke="black" stroke-width="14"/>
<line x1="117.93" y1="259.177" x2="117.927" y2="32.0718" stroke="black" stroke-width="14"/>
<line x1="106.223" y1="25.0718" x2="131.187" y2="25.0718" stroke="black" stroke-width="14" stroke-linecap="round"/>
<line x1="106.234" y1="252.048" x2="131.198" y2="252.048" stroke="black" stroke-width="14" stroke-linecap="round"/>
</svg>
